<?xml version="1.0" encoding="utf-8"?>
<!-- Generator: Adobe Illustrator 22.0.1, SVG Export Plug-In . SVG Version: 6.00 Build 0)  -->
<svg version="1.1" id="Layer_1" xmlns="http://www.w3.org/2000/svg" xmlns:xlink="http://www.w3.org/1999/xlink" x="0px" y="0px"
	 width="540px" height="540px" viewBox="0 0 540 540" style="enable-background:new 0 0 540 540;" xml:space="preserve">
<style type="text/css">
	.st0{fill-rule:evenodd;clip-rule:evenodd;fill:none;}
	.st1{fill:#00B339;}
	.st2{fill:#272D31;}
	.st3{fill:#FFFFFF;}
	.st4{fill:#EAEAEA;}
	.st5{fill:#BABABA;}
	.st6{fill:#458ECC;}
	.st7{fill:#282828;}
	.st8{fill:#595959;}
	.st9{fill:#F7D926;}
	.st10{fill:#F2CC2C;}
	.st11{fill:#DDBA2A;}
</style>
<title>2-factor-2</title>
<g>
	<rect x="-0.6093" y="0.3594" class="st0" width="540" height="540"/>
	<circle class="st1" cx="269.4029" cy="274.8868" r="227.5"/>
	<g>
		<path class="st2" d="M356.0789,415.9563H49.7674c-5.0796,0-9.2356-4.156-9.2356-9.2356V208.3932
			c0-5.0796,4.156-9.2356,9.2356-9.2356h306.3115c5.0796,0,9.2356,4.156,9.2356,9.2356v198.3275
			C365.3145,411.8003,361.1584,415.9563,356.0789,415.9563z"/>
		<rect x="56.3141" y="213.2786" class="st3" width="293.2181" height="172.7744"/>
		<path class="st4" d="M402.2296,415.1257H4.4473c-1.1738,0-2.1253-0.9515-2.1253-2.1253v-9.8705
			c0-1.1737,0.9515-2.1253,2.1253-2.1253h397.7822c1.1738,0,2.1253,0.9515,2.1253,2.1253v9.8705
			C404.3548,414.1741,403.4033,415.1257,402.2296,415.1257z"/>
		<polygon class="st5" points="385.7491,420.1095 17.1357,420.1095 4.3591,415.1257 401.7879,415.1257 		"/>
		<path class="st5" d="M243.2095,401.0047v5.2782c0,1.2087-0.9889,2.1976-2.1976,2.1976h-75.3468
			c-1.2087,0-2.1976-0.9889-2.1976-2.1976v-5.2782"/>
		<circle cx="203.0735" cy="206.129" r="3.0389"/>
	</g>
	<g>
		<rect x="126.919" y="246.2041" class="st4" width="152.0083" height="66.6876"/>
		<rect x="206.661" y="285.4803" class="st6" width="55.6533" height="16.6129"/>
		<rect x="143.5319" y="258.069" class="st3" width="118.7824" height="19.1049"/>
		<circle cx="153.4997" cy="268.0368" r="3.3226"/>
		<circle cx="163.4674" cy="268.0368" r="3.3226"/>
		<circle cx="173.4352" cy="268.0368" r="3.3226"/>
		<circle cx="183.4029" cy="268.0368" r="3.3226"/>
	</g>
	<g>
		<path class="st7" d="M405.0815,515.1547l-124.5265-43.2282c-11.3499-3.94-17.3568-16.3349-13.4168-27.6848l103.6614-298.6159
			c3.94-11.3499,16.3349-17.3568,27.6848-13.4168l124.5265,43.2281c11.3499,3.94,17.3568,16.3349,13.4168,27.6848l-103.6614,298.616
			C428.8263,513.0878,416.4313,519.0947,405.0815,515.1547z"/>
		
			<rect x="322.6121" y="182.0523" transform="matrix(0.9447 0.3279 -0.3279 0.9447 128.3008 -114.0924)" class="st3" width="159.6456" height="282.628"/>
		<path class="st8" d="M469.4815,187.2411l-35.1747-12.2103c-0.4384-0.1522-0.6726-0.6354-0.5204-1.0738l1.7916-5.1608
			c0.1522-0.4384,0.6354-0.6726,1.0738-0.5204l35.1747,12.2103c0.4384,0.1522,0.6726,0.6354,0.5204,1.0738l-1.7916,5.1608
			C470.4031,187.1591,469.9199,187.3932,469.4815,187.2411z"/>
		<circle class="st8" cx="456.7358" cy="166.6677" r="3.7569"/>
		<circle class="st8" cx="349.2819" cy="476.0987" r="14.3233"/>
	</g>
	<g>
		<path class="st6" d="M482.9254,282.8482l-113.6396-39.5155c-2.5388-0.8828-3.8938-3.6824-3.011-6.2212l13.2745-38.175
			c0.8828-2.5389,3.6824-3.8938,6.2212-3.011l113.6396,39.5155c2.5388,0.8828,3.8938,3.6824,3.011,6.2212l-13.2745,38.175
			C488.2638,282.3761,485.4642,283.731,482.9254,282.8482z"/>
		<g>
			<path class="st3" d="M388.875,215.46l-0.9014-7.2891l1.3926,0.4844l0.3047,3.3164c0.0664,0.8555,0.1289,1.6758,0.2217,2.5581
				l0.0615,0.0215c0.6045-0.6401,1.207-1.229,1.7754-1.8638l2.3105-2.4062l1.332,0.4629l-5.2129,5.1621l-1.3672,3.9316
				l-1.2842-0.4463L388.875,215.46z"/>
			<path class="st3" d="M398.0371,214.4121c1.8418,0.6406,2.9814,2.6504,2.1045,5.1733c-0.8672,2.4922-3.0078,3.3618-4.8496,2.7212
				s-2.9834-2.6514-2.1162-5.1436C394.0527,214.6406,396.1953,213.7715,398.0371,214.4121z M395.6582,221.2529
				c1.2998,0.4521,2.5703-0.4072,3.168-2.125c0.6025-1.7334,0.1445-3.2119-1.1553-3.6641
				c-1.2852-0.4463-2.5771,0.4233-3.1797,2.1567C393.8936,219.3389,394.373,220.8066,395.6582,221.2529z"/>
			<path class="st3" d="M403.3291,216.4604l1.2832,0.4468l-1.5977,4.5967c-0.4902,1.4082-0.2822,2.1582,0.709,2.5029
				c0.7734,0.2686,1.4502,0.0698,2.4688-0.5649l1.8574-5.3398l1.2695,0.4414l-2.6162,7.5225l-1.0527-0.3657l0.2998-1.2148
				l-0.0459-0.0161c-0.9814,0.5786-1.9131,0.8618-2.9502,0.5015c-1.5938-0.5537-1.9512-1.8237-1.2832-3.7432L403.3291,216.4604z"/>
			<path class="st3" d="M411.8564,219.4258l1.0527,0.3662l-0.3652,1.3994l0.0469,0.0166c0.8398-0.7666,1.8232-1.1016,2.6748-0.8052
				c0.3242,0.1128,0.54,0.2397,0.749,0.4341l-0.6338,1.0283c-0.2217-0.1631-0.375-0.2686-0.6846-0.376
				c-0.6348-0.2207-1.5547-0.0205-2.5059,1.0713l-1.6797,4.8291l-1.2695-0.4414L411.8564,219.4258z"/>
			<path class="st3" d="M423.5361,228.4492l-3.6992-1.2861l-2.0518,2.7568l-1.3154-0.458l6.9668-8.959l1.4551,0.5059
				l-0.0947,11.3491l-1.3613-0.4731L423.5361,228.4492z M423.5723,227.2993l0.0576-1.7144c0.0381-1.2544,0.0996-2.4819,0.1846-3.771
				l-0.0615-0.0215c-0.7354,1.063-1.4473,2.0645-2.1973,3.0708l-1.0332,1.376L423.5723,227.2993z"/>
			<path class="st3" d="M428.4814,225.207l1.2852,0.4463l-1.5996,4.5977c-0.4893,1.4082-0.2803,2.1577,0.71,2.502
				c0.7744,0.2695,1.4502,0.0703,2.4688-0.5645l1.8564-5.3398l1.2695,0.4414l-2.6152,7.5225l-1.0527-0.3662l0.3008-1.2144
				l-0.0459-0.0161c-0.9824,0.5791-1.9141,0.8623-2.9512,0.502c-1.5938-0.5547-1.9512-1.8242-1.2832-3.7432L428.4814,225.207z"/>
			<path class="st3" d="M436.8672,229.2852l-1.1143-0.3877l0.334-0.96l1.2031,0.3325l0.8867-2.0518l1.0684,0.3716l-0.7324,2.1055
				l2.0273,0.7051l-0.3604,1.0361l-2.0273-0.7046l-1.4531,4.1792c-0.3232,0.9292-0.2119,1.5576,0.6543,1.8584
				c0.2637,0.0918,0.6426,0.1016,0.9219,0.0957l-0.0859,1.0454c-0.4668-0.0063-1.0254-0.0439-1.4893-0.2056
				c-1.6104-0.5596-1.7979-1.77-1.2812-3.2559L436.8672,229.2852z"/>
			<path class="st3" d="M443.46,226.4941l1.2686,0.4409l-1.0439,3.0029l-0.584,1.5317c0.9482-0.4336,1.9014-0.7266,2.9375-0.3662
				c1.5791,0.5488,1.9355,1.8184,1.2676,3.7373l-1.6572,4.7676l-1.2686-0.4414l1.5986-4.5967
				c0.4893-1.4092,0.2656-2.1631-0.7256-2.5078c-0.7734-0.269-1.4395-0.0498-2.4619,0.4448l-1.8945,5.4487l-1.2686-0.4414
				L443.46,226.4941z"/>
			<path class="st3" d="M448.9316,235.8574l3.5605,1.2378l-0.3389,0.9756l-3.5605-1.2378L448.9316,235.8574z"/>
			<path class="st3" d="M460.4834,233.1768c1.207,0.4199,1.9619,1.3418,2.334,2.2173l-1.0127,0.5674
				c-0.3428-0.7612-0.8643-1.3589-1.6992-1.6494c-1.9355-0.6729-3.7695,0.4595-4.6465,2.9819
				c-0.8887,2.5542-0.2246,4.5894,1.71,5.2622c0.96,0.3335,1.8115,0.1792,2.7148-0.3228l0.4531,1.042
				c-1.1113,0.6553-2.3066,0.8467-3.5918,0.4004c-2.5537-0.8882-3.7803-3.501-2.6279-6.813
				C455.2529,233.5962,457.8828,232.2725,460.4834,233.1768z"/>
			<path class="st3" d="M467.2314,238.4727c1.8418,0.6406,2.9814,2.6504,2.1045,5.1738c-0.8672,2.4922-3.0078,3.3613-4.8496,2.7207
				s-2.9834-2.6509-2.1162-5.1431C463.2471,238.7012,465.3896,237.832,467.2314,238.4727z M464.8525,245.314
				c1.2998,0.4517,2.5693-0.4072,3.167-2.1255c0.6025-1.7334,0.1455-3.2119-1.1543-3.6636
				c-1.2852-0.4468-2.5771,0.4233-3.1797,2.1567C463.0879,243.3994,463.5674,244.8672,464.8525,245.314z"/>
			<path class="st3" d="M475.4199,241.3203c0.8662,0.3013,1.3262,0.8252,1.8037,1.5986l0.3838-1.3062l1.0068-2.8945l1.2852,0.4468
				l-3.832,11.021l-1.0527-0.3662l0.1982-0.9199l-0.0459-0.0161c-0.7881,0.3682-1.7646,0.584-2.6465,0.2773
				c-1.8896-0.6572-2.6162-2.5063-1.7441-5.0142C471.626,241.7017,473.7021,240.7227,475.4199,241.3203z M473.1699,248.1895
				c0.6963,0.2422,1.418,0.1113,2.2793-0.3696l1.3672-3.9316c-0.4346-0.793-0.9326-1.209-1.5527-1.4243
				c-1.2061-0.4199-2.5693,0.4072-3.167,2.125C471.4727,246.3848,471.8535,247.7314,473.1699,248.1895z"/>
			<path class="st3" d="M484.1035,244.3398c1.9199,0.6675,2.5244,2.4219,1.7764,4.5732c-0.0918,0.2637-0.1943,0.5059-0.29,0.6802
				l-5.0762-1.7651c-0.4727,1.6572,0.1465,3.0186,1.5869,3.5186c0.7119,0.248,1.3965,0.2256,2.0771,0.063l0.1582,0.9927
				c-0.7959,0.1914-1.7227,0.2681-2.7451-0.0869c-2.0127-0.7002-3.0957-2.7256-2.2393-5.1865
				C480.207,244.668,482.3857,243.7422,484.1035,244.3398z M484.8145,248.3862c0.5322-1.5322,0.1475-2.6206-1.0303-3.0298
				c-1.0508-0.3662-2.3135,0.1675-2.9951,1.6299L484.8145,248.3862z"/>
			<path class="st3" d="M487.5635,252.2056c0.4951,0.1724,0.7734,0.7197,0.5684,1.3081c-0.1934,0.5571-0.751,0.8145-1.2461,0.6426
				c-0.5117-0.1777-0.7891-0.7256-0.5957-1.2832C486.4951,252.2852,487.0518,252.0278,487.5635,252.2056z M489.501,246.6328
				c0.4951,0.1719,0.7793,0.7046,0.5742,1.293c-0.1992,0.5728-0.752,0.8145-1.2471,0.6426c-0.5117-0.1777-0.7939-0.71-0.5947-1.2832
				C488.4385,246.6973,488.9893,246.4551,489.501,246.6328z"/>
			<path class="st3" d="M386.251,236.7227l-1.3457-0.4683l-0.9482,2.7246l-1.207-0.4199l0.9482-2.7246l-4.4434-1.5444l0.291-0.8359
				l6.4229-4.8457l1.4229,0.4946l-2.1318,6.1299l1.3467,0.4683L386.251,236.7227z M384.0527,234.813l0.9961-2.8633
				c0.1826-0.5264,0.5254-1.3618,0.7393-1.8765l-0.0615-0.0215c-0.4141,0.3936-0.8438,0.73-1.2891,1.1123l-3.4805,2.5723
				L384.0527,234.813z"/>
			<path class="st3" d="M387.4385,237.9512c0.3838,0.793,0.9385,1.5928,2.0996,1.9966c1.208,0.4199,2.4736-0.1289,2.9531-1.5063
				c0.4736-1.3618-0.083-2.4575-1.3516-2.8989c-0.6816-0.2368-1.1748-0.1655-1.8975,0.0171l-0.5303-0.6704l1.9785-4.6392
				l4.9375,1.7168l-0.3828,1.0996l-3.8223-1.3301l-1.2812,2.834c0.5508-0.0859,1.0527-0.084,1.6562,0.126
				c1.6875,0.5859,2.7314,2.0249,1.9893,4.1611c-0.7432,2.1362-2.7725,2.7837-4.4912,2.186
				c-1.5791-0.5493-2.3223-1.5537-2.7656-2.4712L387.4385,237.9512z"/>
			<path class="st3" d="M395.1943,240.5957c0.373,0.8242,0.9531,1.6504,2.1133,2.0537c1.1934,0.415,2.291-0.001,2.6738-1.0996
				c0.4092-1.1768-0.1211-2.2466-2.4746-3.0645l0.3389-0.9746c2.1055,0.7314,3.083,0.1689,3.4434-0.8682
				c0.334-0.96-0.1064-1.7896-1.1592-2.1553c-0.8213-0.2856-1.6631-0.1099-2.4561,0.2739l-0.4004-1.042
				c1.0049-0.4482,2.1016-0.6567,3.2627-0.2534c1.7188,0.5977,2.6396,1.9414,2.085,3.5361
				c-0.4141,1.1914-1.4053,1.6973-2.6133,1.7285l-0.0215,0.0615c1.0947,0.6929,1.7363,1.8882,1.2627,3.25
				c-0.6074,1.7495-2.418,2.3174-4.2295,1.687c-1.5791-0.5488-2.3535-1.564-2.7666-2.5229L395.1943,240.5957z"/>
			<path class="st3" d="M402.0068,244.4053c4.001-1.9229,6.292-3.1216,6.8467-4.7163c0.3926-1.1299,0.0527-2.1499-1.2002-2.5859
				c-0.8203-0.2852-1.7158-0.0063-2.5205,0.46l-0.4746-0.981c1.1338-0.6123,2.2256-0.9092,3.5098-0.4619
				c1.8271,0.6348,2.5537,2.1885,1.9453,3.9375c-0.6465,1.8574-2.9746,3.1133-6.1611,4.7461
				c0.5566,0.1416,1.1777,0.3057,1.6885,0.4834l2.8633,0.9951l-0.3828,1.0996l-6.3779-2.2178L402.0068,244.4053z"/>
		</g>
		<polygon class="st6" points="490.8002,270.4038 501.2609,282.717 486.0529,277.4288 		"/>
	</g>
	<g>
		<polygon class="st9" points="319.6552,292.8656 253.3033,269.7724 269.904,252.0666 205.5085,266.7008 247.6272,315.8477 
			245.6541,291.6732 312.006,314.7663 		"/>
		<polygon class="st10" points="273.533,253.3341 269.904,252.0666 253.3033,269.7724 257.5396,271.252 		"/>
		<polygon class="st11" points="251.2561,317.1152 247.6272,315.8477 245.6599,291.6565 249.8961,293.1361 		"/>
	</g>
</g>
</svg>
